<mxfile host="65bd71144e">
    <diagram id="YW0b8mTtPq7nRKunE-hK" name="Page-1">
        <mxGraphModel dx="1158" dy="645" grid="1" gridSize="10" guides="1" tooltips="1" connect="1" arrows="1" fold="1" page="1" pageScale="1" pageWidth="850" pageHeight="1100" math="0" shadow="0">
            <root>
                <mxCell id="0"/>
                <mxCell id="1" parent="0"/>
                <mxCell id="2" value="MobiShop" style="shape=umlFrame;whiteSpace=wrap;html=1;" parent="1" vertex="1">
                    <mxGeometry x="100" y="70" width="980" height="790" as="geometry"/>
                </mxCell>
                <mxCell id="3" value="Customer" style="shape=umlLifeline;participant=umlActor;perimeter=lifelinePerimeter;whiteSpace=wrap;html=1;container=1;collapsible=0;recursiveResize=0;verticalAlign=top;spacingTop=36;outlineConnect=0;size=30;" parent="1" vertex="1">
                    <mxGeometry x="200" y="100" width="20" height="630" as="geometry"/>
                </mxCell>
                <mxCell id="11" value="Login Account" style="html=1;verticalAlign=bottom;endArrow=block;" edge="1" parent="3" target="4">
                    <mxGeometry width="80" relative="1" as="geometry">
                        <mxPoint x="10" y="90" as="sourcePoint"/>
                        <mxPoint x="90" y="90" as="targetPoint"/>
                    </mxGeometry>
                </mxCell>
                <mxCell id="26" value="Choose an item to order" style="html=1;verticalAlign=bottom;endArrow=block;" edge="1" parent="3" target="4">
                    <mxGeometry width="80" relative="1" as="geometry">
                        <mxPoint x="10" y="280" as="sourcePoint"/>
                        <mxPoint x="90" y="280" as="targetPoint"/>
                    </mxGeometry>
                </mxCell>
                <mxCell id="4" value="Mobishop" style="shape=umlLifeline;perimeter=lifelinePerimeter;whiteSpace=wrap;html=1;container=1;collapsible=0;recursiveResize=0;outlineConnect=0;" parent="1" vertex="1">
                    <mxGeometry x="375" y="100" width="100" height="620" as="geometry"/>
                </mxCell>
                <mxCell id="12" value="Verify Account" style="html=1;verticalAlign=bottom;endArrow=block;" edge="1" parent="4" target="6">
                    <mxGeometry width="80" relative="1" as="geometry">
                        <mxPoint x="55" y="100" as="sourcePoint"/>
                        <mxPoint x="135" y="100" as="targetPoint"/>
                    </mxGeometry>
                </mxCell>
                <mxCell id="27" value="Process Transaction" style="html=1;verticalAlign=bottom;endArrow=block;" edge="1" parent="4" target="9">
                    <mxGeometry width="80" relative="1" as="geometry">
                        <mxPoint x="55" y="300" as="sourcePoint"/>
                        <mxPoint x="135" y="300" as="targetPoint"/>
                    </mxGeometry>
                </mxCell>
                <mxCell id="6" value="Website Account Server" style="shape=umlLifeline;perimeter=lifelinePerimeter;whiteSpace=wrap;html=1;container=1;collapsible=0;recursiveResize=0;outlineConnect=0;" parent="1" vertex="1">
                    <mxGeometry x="560" y="100" width="100" height="620" as="geometry"/>
                </mxCell>
                <mxCell id="9" value="Item Database" style="shape=umlLifeline;perimeter=lifelinePerimeter;whiteSpace=wrap;html=1;container=1;collapsible=0;recursiveResize=0;outlineConnect=0;" vertex="1" parent="1">
                    <mxGeometry x="730" y="100" width="100" height="620" as="geometry"/>
                </mxCell>
                <mxCell id="10" value="&lt;span&gt;Orders &amp;amp; Deleveries&lt;/span&gt;&lt;br&gt;&lt;span&gt;Informarmation&lt;/span&gt;" style="shape=umlLifeline;perimeter=lifelinePerimeter;whiteSpace=wrap;html=1;container=1;collapsible=0;recursiveResize=0;outlineConnect=0;" vertex="1" parent="1">
                    <mxGeometry x="915" y="100" width="100" height="620" as="geometry"/>
                </mxCell>
                <mxCell id="13" value="Alternative" style="shape=umlFrame;whiteSpace=wrap;html=1;" vertex="1" parent="1">
                    <mxGeometry x="130" y="210" width="510" height="130" as="geometry"/>
                </mxCell>
                <mxCell id="14" value="Valid Account" style="html=1;verticalAlign=bottom;endArrow=open;dashed=1;endSize=8;" edge="1" parent="1">
                    <mxGeometry relative="1" as="geometry">
                        <mxPoint x="610" y="230" as="sourcePoint"/>
                        <mxPoint x="420" y="230" as="targetPoint"/>
                    </mxGeometry>
                </mxCell>
                <mxCell id="15" value="Browse for items" style="html=1;verticalAlign=bottom;endArrow=block;" edge="1" parent="1">
                    <mxGeometry width="80" relative="1" as="geometry">
                        <mxPoint x="430" y="250" as="sourcePoint"/>
                        <mxPoint x="210" y="250" as="targetPoint"/>
                    </mxGeometry>
                </mxCell>
                <mxCell id="16" value="" style="endArrow=none;dashed=1;html=1;dashPattern=1 3;strokeWidth=2;entryX=1.012;entryY=0.266;entryDx=0;entryDy=0;entryPerimeter=0;exitX=-0.001;exitY=0.273;exitDx=0;exitDy=0;exitPerimeter=0;" edge="1" parent="1">
                    <mxGeometry width="50" height="50" relative="1" as="geometry">
                        <mxPoint x="129.49" y="270.6" as="sourcePoint"/>
                        <mxPoint x="646.1200000000001" y="269.20000000000005" as="targetPoint"/>
                    </mxGeometry>
                </mxCell>
                <mxCell id="18" value="valid account" style="text;html=1;strokeColor=none;fillColor=none;align=center;verticalAlign=middle;whiteSpace=wrap;rounded=0;" vertex="1" parent="1">
                    <mxGeometry x="140" y="239" width="60" height="30" as="geometry"/>
                </mxCell>
                <mxCell id="19" value="invalid account" style="text;html=1;strokeColor=none;fillColor=none;align=center;verticalAlign=middle;whiteSpace=wrap;rounded=0;" vertex="1" parent="1">
                    <mxGeometry x="140" y="285" width="60" height="30" as="geometry"/>
                </mxCell>
                <mxCell id="20" value="Invalid Account" style="html=1;verticalAlign=bottom;endArrow=open;dashed=1;endSize=8;" edge="1" parent="1">
                    <mxGeometry relative="1" as="geometry">
                        <mxPoint x="610" y="300" as="sourcePoint"/>
                        <mxPoint x="420" y="300" as="targetPoint"/>
                    </mxGeometry>
                </mxCell>
                <mxCell id="24" value="return" style="html=1;verticalAlign=bottom;endArrow=open;dashed=1;endSize=8;exitX=1;exitY=0.95;" edge="1" parent="1">
                    <mxGeometry relative="1" as="geometry">
                        <mxPoint x="570" y="257" as="targetPoint"/>
                        <mxPoint x="510" y="257" as="sourcePoint"/>
                    </mxGeometry>
                </mxCell>
                <mxCell id="25" value="Your account is invalid" style="html=1;verticalAlign=bottom;endArrow=block;entryX=0.157;entryY=0.846;entryDx=0;entryDy=0;entryPerimeter=0;" edge="1" parent="1" target="13">
                    <mxGeometry width="80" relative="1" as="geometry">
                        <mxPoint x="430" y="320" as="sourcePoint"/>
                        <mxPoint x="510" y="320" as="targetPoint"/>
                    </mxGeometry>
                </mxCell>
                <mxCell id="28" value="Item Information" style="html=1;verticalAlign=bottom;endArrow=open;dashed=1;endSize=8;" edge="1" parent="1">
                    <mxGeometry relative="1" as="geometry">
                        <mxPoint x="780" y="422" as="sourcePoint"/>
                        <mxPoint x="424.4473684210525" y="422" as="targetPoint"/>
                    </mxGeometry>
                </mxCell>
                <mxCell id="29" value="Confirm the order" style="html=1;verticalAlign=bottom;endArrow=open;dashed=1;endSize=8;" edge="1" parent="1" target="3">
                    <mxGeometry relative="1" as="geometry">
                        <mxPoint x="420" y="440" as="sourcePoint"/>
                        <mxPoint x="340" y="440" as="targetPoint"/>
                    </mxGeometry>
                </mxCell>
                <mxCell id="30" value="Alternative" style="shape=umlFrame;whiteSpace=wrap;html=1;" vertex="1" parent="1">
                    <mxGeometry x="130" y="460" width="880" height="160" as="geometry"/>
                </mxCell>
                <mxCell id="32" value="Conformed Order" style="text;html=1;strokeColor=none;fillColor=none;align=center;verticalAlign=middle;whiteSpace=wrap;rounded=0;" vertex="1" parent="1">
                    <mxGeometry x="140" y="500" width="60" height="30" as="geometry"/>
                </mxCell>
                <mxCell id="33" value="" style="endArrow=none;dashed=1;html=1;dashPattern=1 3;strokeWidth=2;entryX=1;entryY=0.633;entryDx=0;entryDy=0;entryPerimeter=0;exitX=-0.004;exitY=0.626;exitDx=0;exitDy=0;exitPerimeter=0;" edge="1" parent="1">
                    <mxGeometry width="50" height="50" relative="1" as="geometry">
                        <mxPoint x="127.48000000000002" y="543.1600000000001" as="sourcePoint"/>
                        <mxPoint x="1011" y="544.28" as="targetPoint"/>
                    </mxGeometry>
                </mxCell>
                <mxCell id="34" value="Yes" style="html=1;verticalAlign=bottom;endArrow=open;dashed=1;endSize=8;exitX=0.091;exitY=0.188;exitDx=0;exitDy=0;exitPerimeter=0;entryX=0.33;entryY=0.188;entryDx=0;entryDy=0;entryPerimeter=0;" edge="1" parent="1" source="30" target="30">
                    <mxGeometry relative="1" as="geometry">
                        <mxPoint x="350" y="490" as="sourcePoint"/>
                        <mxPoint x="270" y="490" as="targetPoint"/>
                    </mxGeometry>
                </mxCell>
                <mxCell id="35" value="Processing Order" style="html=1;verticalAlign=bottom;endArrow=block;entryX=0.955;entryY=0.313;entryDx=0;entryDy=0;entryPerimeter=0;" edge="1" parent="1" target="30">
                    <mxGeometry width="80" relative="1" as="geometry">
                        <mxPoint x="430" y="510" as="sourcePoint"/>
                        <mxPoint x="500" y="510" as="targetPoint"/>
                    </mxGeometry>
                </mxCell>
                <mxCell id="36" value="Not Confirmed" style="text;html=1;strokeColor=none;fillColor=none;align=center;verticalAlign=middle;whiteSpace=wrap;rounded=0;" vertex="1" parent="1">
                    <mxGeometry x="140" y="560" width="60" height="30" as="geometry"/>
                </mxCell>
                <mxCell id="37" value="No" style="html=1;verticalAlign=bottom;endArrow=open;dashed=1;endSize=8;exitX=0.091;exitY=0.688;exitDx=0;exitDy=0;exitPerimeter=0;entryX=0.341;entryY=0.688;entryDx=0;entryDy=0;entryPerimeter=0;" edge="1" parent="1" source="30" target="30">
                    <mxGeometry relative="1" as="geometry">
                        <mxPoint x="330" y="580" as="sourcePoint"/>
                        <mxPoint x="250" y="580" as="targetPoint"/>
                    </mxGeometry>
                </mxCell>
                <mxCell id="38" value="List of Items" style="html=1;verticalAlign=bottom;endArrow=block;entryX=0.091;entryY=0.875;entryDx=0;entryDy=0;entryPerimeter=0;" edge="1" parent="1" target="30">
                    <mxGeometry width="80" relative="1" as="geometry">
                        <mxPoint x="780" y="600" as="sourcePoint"/>
                        <mxPoint x="590" y="580" as="targetPoint"/>
                    </mxGeometry>
                </mxCell>
                <mxCell id="39" value="Order Information" style="html=1;verticalAlign=bottom;endArrow=block;" edge="1" parent="1">
                    <mxGeometry width="80" relative="1" as="geometry">
                        <mxPoint x="964.5" y="673" as="sourcePoint"/>
                        <mxPoint x="424.4473684210525" y="673" as="targetPoint"/>
                    </mxGeometry>
                </mxCell>
                <mxCell id="40" value="Wait for delivery information" style="html=1;verticalAlign=bottom;endArrow=block;" edge="1" parent="1">
                    <mxGeometry width="80" relative="1" as="geometry">
                        <mxPoint x="424.5" y="691" as="sourcePoint"/>
                        <mxPoint x="209.4473684210525" y="691" as="targetPoint"/>
                    </mxGeometry>
                </mxCell>
            </root>
        </mxGraphModel>
    </diagram>
</mxfile>